Coordinates
version=1
nRows=24
nColumns=24
inDegrees=yes

Units are S.I. units (second, meters, Newtons, ...)
Angles are in degrees.

endheader
time	pelvis_tilt	pelvis_list	pelvis_rotation	pelvis_tx	pelvis_ty	pelvis_tz	hip_flexion_r	hip_adduction_r	hip_rotation_r	knee_angle_r	ankle_angle_r	subtalar_angle_r	mtp_angle_r	hip_flexion_l	hip_adduction_l	hip_rotation_l	knee_angle_l	ankle_angle_l	subtalar_angle_l	mtp_angle_l	lumbar_extension	lumbar_bending	lumbar_rotation
      1.00450000	     -8.69301982	     -1.70442883	     -5.44909622	      0.05155570	      1.01435613	      0.29557540	     -8.71891526	      2.73202116	      1.13941628	    -13.43320903	     20.28266543	      5.37523960	      6.41273734	     36.27166683	     -5.22264545	     -2.38618948	     -4.75620455	      9.07606463	      6.38627492	      4.40545076	     -7.45174419	      3.62445421	      6.68507915
      1.00866667	     -8.69559189	     -1.61068511	     -5.57628955	      0.05803532	      1.01365980	      0.29524171	     -8.80405498	      2.52215000	      1.08867422	    -13.99497134	     20.16440984	      5.62586975	      7.08261438	     36.27579219	     -5.12006336	     -2.18662315	     -5.35287214	      8.70753042	      6.00393767	      4.55403841	     -7.39816773	      3.43423563	      6.74418535
      1.01283333	     -8.68436122	     -1.50954545	     -5.71044538	      0.06457417	      1.01306418	      0.29497539	     -8.92092167	      2.31526480	      1.16053873	    -14.51294585	     19.87108321	      5.64449234	      7.17308719	     36.28404668	     -5.02851758	     -2.16642963	     -6.01672913	      8.35905533	      5.91528120	      4.56974021	     -7.34939709	      3.22464342	      6.70647329
      1.01700000	     -8.73088679	     -1.39518965	     -5.82346048	      0.07111833	      1.01240677	      0.29463181	     -8.94212878	      2.09422567	      1.15757177	    -15.08928608	     19.55555818	      5.73212880	     11.12063121	     36.33373162	     -4.90307995	     -1.95489392	     -6.64204733	      7.85536195	      5.49394992	      5.46015069	     -7.23216022	      3.00064062	      6.68878988
      1.02116667	     -8.74369281	     -1.25951953	     -5.95131614	      0.07766908	      1.01185733	      0.29431513	     -8.96226179	      1.83953133	      1.11361906	    -15.73960684	     19.32679967	      5.96526744	     11.19824445	     36.38132469	     -4.77752711	     -1.95583052	     -7.36121491	      7.43147783	      5.33628049	      5.46439279	     -7.15632004	      2.73251055	      6.74096349
      1.02533333	     -8.76914300	     -1.12188726	     -6.06168975	      0.08425032	      1.01135560	      0.29398522	     -8.97118834	      1.59431563	      1.12564574	    -16.37788314	     18.98047075	      6.06235530	     11.26865823	     36.44239336	     -4.64343706	     -1.93291900	     -8.08471080	      6.95341396	      5.15144753	      5.46500461	     -7.05516243	      2.46289022	      6.71585168
      1.02950000	     -8.79361303	     -0.97931378	     -6.16084702	      0.09081480	      1.01089842	      0.29361260	     -8.94570421	      1.33970132	      1.08670629	    -17.08066391	     18.63781997	      6.21480177	     11.39451980	     36.51284800	     -4.49809619	     -1.89148998	     -8.83373834	      6.45774245	      4.89601122	      5.46981082	     -6.95365775	      2.19056281	      6.70343543
      1.03366667	     -8.83216921	     -0.83464944	     -6.24203642	      0.09735515	      1.01045484	      0.29316479	     -8.86721266	      1.07953365	      0.98832883	    -17.85633195	     18.33221830	      6.41773225	     11.68863433	     36.61390113	     -4.33736119	     -1.80830786	     -9.61605354	      5.96349423	      4.52666710	      5.48721791	     -6.83552491	      1.94027845	      6.70038479
      1.03783333	     -8.83616824	     -0.69565485	     -6.31467160	      0.10390825	      1.01015984	      0.29273531	     -8.82702224	      0.83118654	      0.95703481	    -18.60476834	     17.77813652	      6.42605319	     15.26373599	     36.67816329	     -4.18294191	     -1.75576262	    -10.40204486	      5.46427810	      4.25321236	      5.73407095	     -6.76861753	      1.68446339	      6.64511391
      1.04200000	     -8.85846980	     -0.53170956	     -6.38611619	      0.11046115	      1.00987010	      0.29229160	     -8.72119364	      0.55209813	      0.87879164	    -19.44676602	     17.33773866	      6.57621126	     15.33284568	     36.78915908	     -4.01507048	     -1.79939615	    -11.25554373	      5.05116786	      4.08396083	      5.72306382	     -6.67302126	      1.38510720	      6.61302755
      1.04616667	     -8.86800627	     -0.37021052	     -6.44060265	      0.11702542	      1.00967588	      0.29183643	     -8.61962853	      0.28278030	      0.83355732	    -20.29529848	     16.79303524	      6.64075745	     15.40116868	     36.88805824	     -3.84253588	     -1.83059270	    -12.11525439	      4.64391960	      3.92391768	      5.71063154	     -6.59292506	      1.08017476	      6.55513989
      1.05033333	     -8.88853667	     -0.20270056	     -6.48552230	      0.12357465	      1.00951181	      0.29134113	     -8.46583960	      0.00497734	      0.76304226	    -21.21594869	     16.24154840	      6.73691147	     15.50770798	     37.00461654	     -3.66061056	     -1.85847252	    -12.99077521	      4.27367465	      3.74069676	      5.69502041	     -6.49680631	      0.77922376	      6.49579862
      1.05450000	     -8.90411634	     -0.04218897	     -6.51392212	      0.13007393	      1.00939842	      0.29077577	     -8.27823631	     -0.27205708	      0.64510922	    -22.19638422	     15.63118465	      6.81135964	     18.75980975	     37.11833246	     -3.46769492	     -1.81638796	    -13.86911778	      3.91985409	      3.44987611	      5.38170982	     -6.41403367	      0.51087713	      6.42741037
      1.05866667	     -8.86309711	      0.12340748	     -6.52938609	      0.13659440	      1.00944357	      0.29022435	     -8.13894849	     -0.55208038	      0.55515708	    -23.19600575	     14.97725839	      6.83795126	     18.77490590	     37.17931566	     -3.27230869	     -1.87921247	    -14.77059826	      3.66788593	      3.34531562	      5.37361281	     -6.39255755	      0.21481551	      6.36126433
      1.06283333	     -8.89753494	      0.30562073	     -6.54113623	      0.14309158	      1.00938735	      0.28963445	     -7.86397416	     -0.84984070	      0.43780789	    -24.29721011	     14.38585353	      6.99813734	     18.89659052	     37.31762770	     -3.06184563	     -1.90208991	    -15.66462510	      3.41339429	      3.22116929	      5.34683257	     -6.29414807	     -0.10656821	      6.27253281
      1.06700000	     -8.88344146	      0.48611848	     -6.53496354	      0.14957741	      1.00946853	      0.28902464	     -7.62067153	     -1.14757596	      0.31950993	    -25.42448933	     13.70991163	      7.08993184	     19.10088517	     37.39194144	     -2.83821482	     -1.91774132	    -16.53312443	      3.19893743	      3.08733500	      5.30221753	     -6.24423176	     -0.42018502	      6.17636766
      1.07116667	     -8.81684748	      0.67353909	     -6.50860307	      0.15604836	      1.00970268	      0.28836492	     -7.41366890	     -1.45884185	      0.19271061	    -26.56812533	     12.91644070	      7.12684018	     21.76151937	     37.38398139	     -2.57956488	     -1.86403144	    -17.34581091	      3.01639032	      2.85680060	      4.73001474	     -6.27346034	     -0.74988797	      6.04074526
      1.07533333	     -8.78302228	      0.83481038	     -6.47766323	      0.16249520	      1.00991275	      0.28772332	     -7.14433641	     -1.72873579	      0.10511497	    -27.76208437	     12.11689970	      7.13829576	     21.78355000	     37.42337634	     -2.36080938	     -1.89496584	    -18.18749775	      2.90867347	      2.83775868	      4.72031141	     -6.25947670	     -1.05604328	      5.96686344
      1.07950000	     -8.72479639	      1.00137243	     -6.43290690	      0.16890820	      1.01019650	      0.28704136	     -6.86642545	     -2.00944563	     -0.00060469	    -29.01192138	     11.31973056	      7.16048988	     21.82001622	     37.41816934	     -2.12100959	     -1.89901865	    -18.98823249	      2.82311557	      2.77548729	      4.70563321	     -6.28018537	     -1.35870206	      5.87191387
      1.08366667	     -8.68921298	      1.18222151	     -6.37938834	      0.17528645	      1.01047112	      0.28632594	     -6.52026698	     -2.30926361	     -0.13404637	    -30.33545545	     10.54576287	      7.21159854	     21.93395127	     37.41373265	     -1.85794088	     -1.88461327	    -19.73184124	      2.72326615	      2.67210141	      4.66266105	     -6.26233327	     -1.65559644	      5.73701873
      1.08783333	     -8.63632446	      1.35273462	     -6.30995600	      0.18163574	      1.01081433	      0.28558905	     -6.17599926	     -2.59357133	     -0.24577000	    -31.67559551	      9.71261048	      7.24991872	     22.20603794	     37.37325093	     -1.58637489	     -1.82534190	    -20.44135329	      2.66208191	      2.50942885	      4.55475164	     -6.28514509	     -1.97105919	      5.57678644
      1.09200000	     -8.52383040	      1.50200687	     -6.22926283	      0.18793542	      1.01130058	      0.28483725	     -5.87496560	     -2.85819536	     -0.36116967	    -33.03557327	      8.81166823	      7.19840720	     22.24036631	     37.25316281	     -1.32593692	     -1.80117253	    -21.11543771	      2.66811548	      2.46653176	      4.53633815	     -6.38361759	     -2.23882704	      5.49525013
      1.09616667	     -8.40294455	      1.69498528	     -6.14231777	      0.19420755	      1.01184980	      0.28407734	     -5.54924147	     -3.17133617	     -0.47377338	    -34.43748398	      7.89894266	      7.12165245	     23.90876768	     37.07188974	     -1.00005509	     -1.68894422	    -21.67016089	      2.61949488	      2.27417827	      3.67971471	     -6.50244711	     -2.57013223	      5.26629397
      1.10033333	     -8.31277590	      1.83358246	     -6.05023224	      0.20041679	      1.01233955	      0.28331166	     -5.16586267	     -3.41926181	     -0.58063928	    -35.87661332	      6.99308283	      7.07754478	     23.90242210	     36.94646728	     -0.73991048	     -1.65565864	    -22.28241582	      2.67929558	      2.23649250	      3.67389138	     -6.57676059	     -2.83281351	      5.19161212
